<svg xmlns="http://www.w3.org/2000/svg" viewBox="0 0 420 594" preserveAspectRatio="xMidYMid slice"><rect width="420" height="594" fill="#cfe8ff"/><g transform="translate(134.4 130.68) scale(1)" fill="#ffffff" opacity="0.9"><ellipse cx="0" cy="0" rx="60" ry="34"/><ellipse cx="42" cy="6" rx="40" ry="26"/><ellipse cx="-42" cy="8" rx="40" ry="24"/></g><g transform="translate(302.4 267.3) scale(0.8)" fill="#ffffff" opacity="0.9"><ellipse cx="0" cy="0" rx="60" ry="34"/><ellipse cx="42" cy="6" rx="40" ry="26"/><ellipse cx="-42" cy="8" rx="40" ry="24"/></g><g transform="translate(117.60000000000001 415.79999999999995) scale(1.1)" fill="#ffffff" opacity="0.9"><ellipse cx="0" cy="0" rx="60" ry="34"/><ellipse cx="42" cy="6" rx="40" ry="26"/><ellipse cx="-42" cy="8" rx="40" ry="24"/></g><g transform="translate(277.2 504.9) scale(0.7)" fill="#ffffff" opacity="0.9"><ellipse cx="0" cy="0" rx="60" ry="34"/><ellipse cx="42" cy="6" rx="40" ry="26"/><ellipse cx="-42" cy="8" rx="40" ry="24"/></g></svg>
