<svg xmlns="http://www.w3.org/2000/svg" viewBox="0 0 100 100"><path d="M50 17 A13 13 0 1 0 50 43 A13 13 0 1 0 50 17 Z" fill="#F4A261"/><path d="M70 31 A13 13 0 1 0 70 57 A13 13 0 1 0 70 31 Z" fill="#F4A261"/><path d="M62 55 A13 13 0 1 0 62 81 A13 13 0 1 0 62 55 Z" fill="#F4A261"/><path d="M38 55 A13 13 0 1 0 38 81 A13 13 0 1 0 38 55 Z" fill="#F4A261"/><path d="M30 31 A13 13 0 1 0 30 57 A13 13 0 1 0 30 31 Z" fill="#F4A261"/><path d="M50 38 A12 12 0 1 0 50 62 A12 12 0 1 0 50 38 Z" fill="#ffd166"/></svg>
