<svg xmlns="http://www.w3.org/2000/svg" viewBox="0 0 100 100"><path d="M50 17 A11 11 0 1 0 50 39 A11 11 0 1 0 50 17 Z" fill="#FF8FA3"/><path d="M71 31 A11 11 0 1 0 71 53 A11 11 0 1 0 71 31 Z" fill="#FF8FA3"/><path d="M63 56 A11 11 0 1 0 63 78 A11 11 0 1 0 63 56 Z" fill="#FF8FA3"/><path d="M37 56 A11 11 0 1 0 37 78 A11 11 0 1 0 37 56 Z" fill="#FF8FA3"/><path d="M29 31 A11 11 0 1 0 29 53 A11 11 0 1 0 29 31 Z" fill="#FF8FA3"/><path d="M50 36 A12 12 0 1 0 50 60 A12 12 0 1 0 50 36 Z" fill="#ffd166"/></svg>
